<?xml version="1.0" encoding="UTF-8"?>
<svg xmlns="http://www.w3.org/2000/svg" xmlns:xlink="http://www.w3.org/1999/xlink" width="375pt" height="374.999991pt" viewBox="0 0 375 374.999991" version="1.2">
<g id="surface1">
<path style=" stroke:none;fill-rule:nonzero;fill:rgb(0,0,0);fill-opacity:1;" d="M 207.285156 20.28125 C 200.476562 22.402344 198.253906 24.316406 194.457031 31.433594 C 193.464844 33.316406 192.128906 35.847656 191.480469 37.046875 C 190.109375 39.578125 186.621094 48.816406 185.800781 52.136719 C 182.753906 64.007812 181.867188 72.871094 182.480469 84.949219 C 182.925781 93.777344 184.292969 101.886719 187.03125 112.359375 C 189.359375 121.082031 192.230469 128.03125 199.691406 142.984375 C 204.070312 151.707031 205.234375 154.34375 206.257812 157.867188 C 208.652344 166.214844 208.449219 172.921875 205.574219 179.527344 C 201.742188 188.253906 197.226562 192.496094 189.050781 194.957031 C 184.054688 196.464844 183.269531 196.566406 178.71875 196.226562 C 174.304688 195.882812 170.4375 194.820312 165.71875 192.699219 C 159.832031 189.996094 153.914062 183.871094 151.65625 178.15625 C 150.527344 175.25 150.425781 169.570312 151.3125 160.089844 C 151.722656 155.949219 152.101562 151.570312 152.203125 150.339844 C 152.304688 149.109375 152.921875 142.265625 153.570312 135.113281 C 154.222656 127.960938 154.90625 119.785156 155.109375 116.976562 C 155.316406 114.136719 155.589844 110.578125 155.726562 109.003906 C 156.070312 105.378906 155.726562 101.683594 154.769531 98.84375 C 153.777344 95.898438 151.757812 93.847656 148.097656 92 C 145.601562 90.734375 145.085938 90.628906 142.214844 90.527344 C 139.921875 90.425781 138.585938 90.5625 137.421875 90.9375 C 135.644531 91.554688 129.828125 94.667969 128.871094 95.558594 C 128.527344 95.867188 127.570312 96.652344 126.714844 97.304688 C 123.671875 99.59375 116.347656 106.507812 113.40625 109.792969 C 112.585938 110.75 111.183594 112.253906 110.328125 113.214844 C 106.152344 117.765625 101.808594 123.410156 97.328125 130.152344 C 85.726562 147.566406 78.132812 170.289062 76.046875 193.625 C 75.601562 198.585938 75.429688 211.757812 75.738281 217.371094 C 75.945312 221.03125 76.25 220.621094 72.316406 222.023438 C 63.285156 225.34375 55.585938 231.398438 52.542969 237.59375 C 50.457031 241.90625 49.667969 245.601562 49.667969 251.621094 C 49.632812 257.164062 50.558594 262.707031 52.507812 268.558594 C 55.859375 278.652344 63.457031 289.433594 73.242188 298.019531 C 79.125 303.152344 91.269531 310.851562 98.214844 313.863281 C 101.707031 315.402344 106.460938 317.558594 107.214844 317.96875 C 107.523438 318.140625 110.363281 319.304688 113.542969 320.570312 C 116.757812 321.835938 119.976562 323.136719 120.726562 323.476562 C 125.550781 325.566406 137.285156 329.261719 148.507812 332.238281 C 157.574219 334.632812 159.96875 335.148438 175.808594 337.882812 C 197.296875 341.613281 213.203125 342.46875 228.324219 340.757812 C 232.363281 340.3125 239.136719 339.558594 243.378906 339.082031 C 261.066406 337.0625 270.851562 335.316406 281.5625 332.167969 C 283.238281 331.691406 285.835938 330.9375 287.34375 330.492188 C 290.96875 329.433594 302.121094 325.53125 305.132812 324.265625 C 306.46875 323.683594 308.144531 323.035156 308.898438 322.792969 C 310.640625 322.246094 330.621094 312.253906 334.042969 310.238281 C 335.445312 309.414062 337.464844 308.183594 338.492188 307.535156 C 339.515625 306.882812 341.46875 305.71875 342.765625 304.933594 C 350.15625 300.519531 363.398438 289.707031 364.972656 286.796875 C 365.894531 285.050781 365.550781 284.472656 363.601562 284.472656 C 362.199219 284.472656 351.421875 286.078125 345.332031 287.207031 C 344.304688 287.378906 341.46875 287.859375 339.003906 288.234375 C 327.097656 290.046875 321.078125 291.007812 319.605469 291.347656 C 317.210938 291.894531 317.039062 291.65625 318.511719 289.878906 C 319.777344 288.335938 321.964844 285.464844 325.457031 280.707031 C 329.320312 275.4375 335.515625 264.042969 338.902344 256.070312 C 340.234375 252.921875 342.492188 246.148438 343.554688 242.042969 C 343.929688 240.636719 344.613281 238.074219 345.09375 236.394531 C 346.871094 230.167969 347.796875 222.914062 348.410156 210.835938 C 348.789062 203.445312 348.6875 200.878906 347.695312 191.742188 C 345.605469 172.339844 338.386719 152.667969 326.070312 132.71875 C 325.011719 131.007812 323.503906 128.542969 322.71875 127.242188 C 321.929688 125.910156 320.734375 124.199219 320.085938 123.410156 C 319.433594 122.589844 318.339844 121.1875 317.65625 120.261719 C 316.972656 119.304688 315.671875 117.492188 314.710938 116.226562 C 313.789062 114.960938 312.078125 112.804688 310.949219 111.503906 C 309.820312 110.167969 308.210938 108.253906 307.390625 107.226562 C 302.636719 101.136719 282.210938 80.230469 271.089844 70.132812 C 269.859375 69.003906 267.703125 66.988281 266.300781 65.6875 C 264.898438 64.351562 261.648438 61.339844 259.117188 58.980469 C 256.585938 56.617188 254.429688 54.632812 254.328125 54.53125 C 254.226562 54.429688 252.070312 52.445312 249.539062 50.117188 C 247.007812 47.789062 240.0625 40.980469 234.140625 35.027344 C 223.640625 24.453125 221.585938 22.640625 218.234375 21.238281 C 214.640625 19.765625 210.226562 19.355469 207.285156 20.28125 Z M 214.300781 55.523438 C 214.300781 55.96875 219.703125 61.375 224.050781 65.308594 C 225.929688 66.988281 228.90625 69.757812 230.6875 71.46875 C 232.464844 73.144531 235.476562 76.019531 237.390625 77.800781 C 240.882812 81.152344 244.199219 84.265625 248.167969 87.894531 C 263.050781 101.613281 277.386719 115.953125 284.8125 124.503906 C 290.25 130.765625 297.742188 141.304688 302.773438 149.792969 C 305.816406 154.925781 311.632812 167.003906 313.515625 172.066406 C 314.472656 174.703125 315.398438 177.164062 315.566406 177.542969 C 316.046875 178.570312 318.542969 191.433594 319.023438 195.335938 C 319.570312 199.648438 319.535156 211.519531 319.023438 216.722656 C 317.722656 229.246094 313.34375 243.511719 307.734375 253.503906 C 303.96875 260.140625 302.667969 262.367188 301.265625 264.351562 C 300.378906 265.617188 298.976562 267.601562 298.152344 268.800781 C 293.570312 275.300781 284.707031 284.195312 276.839844 290.082031 C 271.878906 293.8125 272.9375 293.539062 265.652344 293.058594 C 258.980469 292.613281 246.320312 291.039062 241.976562 290.117188 C 236.160156 288.886719 230.960938 287.617188 224.734375 286.011719 C 217.992188 284.265625 205.574219 280.398438 201.128906 278.652344 C 199.621094 278.070312 197.636719 277.320312 196.679688 276.976562 C 191.546875 275.128906 176.734375 267.808594 169.480469 263.53125 C 157.984375 256.789062 150.835938 251.894531 131.503906 237.492188 C 128.015625 234.890625 123.53125 231.742188 121.515625 230.476562 C 117.648438 228.011719 110.121094 224.386719 106.734375 223.324219 C 105.023438 222.8125 104.648438 222.539062 104.441406 221.785156 C 103.417969 217.78125 103.109375 201.5625 103.929688 194.136719 C 105.402344 181.203125 109.199219 167.859375 114.707031 156.464844 C 116.175781 153.386719 119.324219 147.945312 122.78125 142.367188 C 123.773438 140.792969 124.628906 140.175781 124.148438 141.339844 C 123.839844 142.195312 123.429688 146.128906 122.574219 156.5 C 121.753906 166.695312 121.824219 176.652344 122.746094 180.964844 C 124.046875 187.089844 128.152344 195.917969 132.292969 201.527344 C 137.253906 208.234375 148.851562 217.132812 156.101562 219.835938 C 157.539062 220.347656 159.25 220.996094 159.902344 221.273438 C 162.054688 222.195312 170.953125 224.179688 175.433594 224.796875 C 179.265625 225.273438 180.496094 225.308594 184.5 224.96875 C 202.015625 223.425781 216.285156 215.589844 225.726562 202.351562 C 230.105469 196.226562 233.253906 189.414062 234.585938 183.1875 C 236.640625 173.710938 237.015625 167.6875 236.058594 159.921875 C 235.476562 155.234375 235.167969 153.898438 233.835938 149.828125 C 232.054688 144.316406 230.859375 141.683594 223.605469 127.34375 C 217.652344 115.507812 216.25 112.394531 214.914062 108.253906 C 211.046875 96.277344 210.125 90.597656 210.089844 78.484375 C 210.054688 70.851562 210.433594 67.738281 212.28125 60.175781 C 212.828125 57.917969 213.375 55.867188 213.445312 55.625 C 213.613281 55.148438 214.300781 55.078125 214.300781 55.523438 Z M 214.300781 55.523438 "/>
<path style=" stroke:none;fill-rule:nonzero;fill:rgb(0,0,0);fill-opacity:1;" d="M 9.296875 174.121094 C 7.828125 175.113281 7.140625 176.960938 7.484375 179.011719 C 10.050781 194.34375 12.546875 202.589844 17.816406 213.128906 C 21.101562 219.699219 23.222656 222.949219 27.703125 228.457031 L 28.492188 229.414062 L 27.738281 230.851562 C 27.054688 232.117188 26.984375 232.90625 26.882812 237.796875 C 26.746094 243.890625 27.019531 245.632812 28.867188 249.945312 C 30.476562 253.742188 32.800781 256.890625 36.871094 260.722656 C 38.925781 262.675781 40.671875 264.214844 40.738281 264.179688 C 40.773438 264.113281 40.671875 263.53125 40.5 262.878906 C 40.292969 262.230469 39.984375 259.21875 39.746094 256.171875 C 39.164062 247.722656 39.816406 242.792969 42.382812 236.738281 C 46.28125 227.5 52.714844 221.167969 63.183594 216.242188 C 65.371094 215.214844 67.183594 214.222656 67.183594 214.050781 C 67.183594 213.503906 63.148438 212.957031 57.539062 212.75 C 52.578125 212.546875 52.097656 212.582031 48.574219 213.46875 C 46.554688 213.984375 44.160156 214.703125 43.269531 215.113281 C 40.15625 216.480469 35.710938 219.21875 34.648438 220.382812 C 34.066406 221.066406 33.484375 221.476562 33.347656 221.304688 C 32.082031 219.867188 27.875 212.820312 25.71875 208.613281 C 22.160156 201.597656 19.730469 194.070312 17.714844 183.871094 C 16.859375 179.628906 15.933594 175.832031 15.695312 175.453125 C 15.113281 174.566406 12.546875 173.265625 11.382812 173.265625 C 10.941406 173.265625 9.980469 173.640625 9.296875 174.121094 Z M 9.296875 174.121094 "/>
</g>
</svg>
